<svg width="128" height="128" viewBox="0 0 128 128" fill="none" xmlns="http://www.w3.org/2000/svg">
  <!-- Outer circle -->
  <circle cx="64" cy="64" r="60" stroke="#4F7C63" stroke-width="3" fill="none"/>
  
  <!-- Major ticks (12, 3, 6, 9) -->
  <rect x="62" y="8" width="4" height="12" fill="#4F7C63"/>
  <rect x="62" y="108" width="4" height="12" fill="#4F7C63"/>
  <rect x="8" y="62" width="12" height="4" fill="#4F7C63"/>
  <rect x="108" y="62" width="12" height="4" fill="#4F7C63"/>
  
  <!-- Minor ticks/dots (1, 2, 4, 5, 7, 8, 10, 11) -->
  <circle cx="64" cy="20" r="2" fill="#4F7C63"/>
  <circle cx="100" cy="40" r="2" fill="#4F7C63"/>
  <circle cx="100" cy="88" r="2" fill="#4F7C63"/>
  <circle cx="64" cy="108" r="2" fill="#4F7C63"/>
  <circle cx="28" cy="88" r="2" fill="#4F7C63"/>
  <circle cx="28" cy="40" r="2" fill="#4F7C63"/>
  <circle cx="50" cy="20" r="2" fill="#4F7C63"/>
  <circle cx="78" cy="20" r="2" fill="#4F7C63"/>
  
  <!-- Fork (short hand, pointing toward ~10:00) -->
  <g transform="translate(64,64) rotate(-60)">
    <line x1="0" y1="0" x2="0" y2="-35" stroke="#4F7C63" stroke-width="3" stroke-linecap="round"/>
    <line x1="-4" y1="-35" x2="-4" y2="-25" stroke="#4F7C63" stroke-width="2" stroke-linecap="round"/>
    <line x1="4" y1="-35" x2="4" y2="-25" stroke="#4F7C63" stroke-width="2" stroke-linecap="round"/>
  </g>
  
  <!-- Knife (long hand, pointing toward ~4:00) -->
  <g transform="translate(64,64) rotate(120)">
    <line x1="0" y1="0" x2="0" y2="-50" stroke="#4F7C63" stroke-width="3" stroke-linecap="round"/>
    <polygon points="0,-50 -3,-45 0,-40 3,-45" fill="#4F7C63"/>
  </g>
</svg>

